<svg width="22" height="16" viewBox="0 0 22 16" fill="none" xmlns="http://www.w3.org/2000/svg">
<path fill-rule="evenodd" clip-rule="evenodd" d="M0 4C0 1.79086 1.79086 0 4 0H18C20.2091 0 22 1.79086 22 4V12C22 14.2091 20.2091 16 18 16H4C1.79086 16 0 14.2091 0 12V4ZM15.4434 12.832V11.7656H9.54883V9.76172H8.22461V12.832H15.4434ZM15.0098 5.77734V2.46094H13.6973V10.3711H15.0098V6.86719H16.498V5.77734H15.0098ZM12.4199 7.14844C12.4141 5.94141 11.3418 5.12695 9.81836 5.13281C8.2832 5.12695 7.2168 5.94141 7.2168 7.14844C7.2168 8.34375 8.2832 9.15234 9.81836 9.15234C11.3418 9.15234 12.4141 8.34375 12.4199 7.14844ZM9.81836 6.12891C9.02734 6.13477 8.47656 6.50977 8.4707 7.14844C8.47656 7.76953 9.02734 8.14453 9.81836 8.14453C10.6035 8.14453 11.1543 7.76953 11.1543 7.14844C11.1543 6.50977 10.6035 6.13477 9.81836 6.12891ZM12.959 4.67578V3.63281H10.4746V2.44922H9.16211V3.63281H6.67773V4.67578H12.959Z" fill="#FAFAFA"/>
</svg>
